<?xml version="1.0" encoding="UTF-8"?>
<svg version="1.1" xmlns="http://www.w3.org/2000/svg" width="500" height="500">
<path d="M0 0 C14.97058396 11.76125322 24.90038526 28.87015129 27.78515625 47.74609375 C30.38303436 69.4895463 27.14586653 92.4411117 13.57324219 110.34472656 C0.52945617 126.41600775 -14.85923062 133.64416712 -34.83984375 137.43359375 C-54.40146878 139.24485533 -74.41626798 134.75959408 -90.21484375 122.74609375 C-107.09570594 108.50286628 -114.8973617 88.41573977 -117.02734375 66.87109375 C-117.92753021 49.29788846 -113.74587249 30.12217252 -103.21484375 15.74609375 C-102.55742187 14.83472656 -101.9 13.92335937 -101.22265625 12.984375 C-77.64366822 -17.76900262 -30.85953271 -21.63541965 0 0 Z M-77.6171875 30.56640625 C-85.56491657 41.40951828 -88.65833202 55.44653892 -87.21484375 68.74609375 C-85.02851698 82.29924738 -80.22204621 93.99877711 -69.21484375 102.74609375 C-58.08438693 109.61307888 -46.08072905 111.40118329 -33.234375 109.24609375 C-27.60751075 107.71070133 -22.94500324 105.11260365 -18.21484375 101.74609375 C-17.36921875 101.18921875 -16.52359375 100.63234375 -15.65234375 100.05859375 C-7.15037615 91.99262449 -1.30236498 80.26633675 -0.9765625 68.4375 C-0.65576731 53.67225119 -2.70427961 42.15053243 -11.21484375 29.74609375 C-11.81296875 28.83859375 -12.41109375 27.93109375 -13.02734375 26.99609375 C-20.81839994 18.98243596 -30.76471545 14.70290486 -41.8503418 14.2734375 C-56.8731686 14.0997094 -67.95221452 18.89798784 -77.6171875 30.56640625 Z " fill="#65EDD6" transform="translate(341.21484375,183.25390625)"/>
<path d="M0 0 C20.233125 -0.0928125 20.233125 -0.0928125 40.875 -0.1875 C45.11714355 -0.21481201 49.35928711 -0.24212402 53.72998047 -0.27026367 C58.95336914 -0.28381348 58.95336914 -0.28381348 61.40701294 -0.28633118 C63.10243092 -0.29090543 64.79783981 -0.30138852 66.49319458 -0.31672668 C91.18318534 -0.52872567 91.18318534 -0.52872567 100.58984375 8.53125 C107.12885742 15.56588574 108.60765558 22.29771937 108.34375 31.8203125 C107.01699205 44.09282358 97.11913462 52.12200469 88.5625 60.0625 C87.49418945 61.06506836 87.49418945 61.06506836 86.40429688 62.08789062 C81.68986341 66.49402326 76.88220707 70.78081886 72 75 C73.6282654 81.21037124 76.98514967 86.3549056 80.25 91.8125 C86.04618186 101.61361943 91.68265535 111.4901072 97.20410156 121.44848633 C100.32069313 127.05565964 103.52442775 132.57981363 106.91601562 138.02587891 C108 140 108 140 108 142 C103.4104797 142.22340401 98.82415181 142.38617929 94.23046875 142.49438477 C92.67033758 142.5395005 91.11058403 142.60081719 89.55175781 142.67895508 C76.74423883 143.30460974 76.74423883 143.30460974 72.85253906 140.39379883 C71.22541489 138.01176472 70.13357434 135.65196363 69 133 C67.87010535 130.99224865 66.72329439 128.99395242 65.5625 127.00390625 C64.37124152 124.85885381 63.18379413 122.71168082 62 120.5625 C57.79626017 112.95813657 53.52973584 105.41578319 49 98 C44.09316033 102.15630764 39.31781216 106.41660114 34.625 110.8125 C33.96943115 111.42488525 33.3138623 112.03727051 32.63842773 112.66821289 C28.32723053 116.71125714 24.12479042 120.84431384 19.9765625 125.0546875 C17.41793259 127.57286476 14.71757858 129.89654113 11.98828125 132.2265625 C9.06243449 134.83625686 6.36715528 137.65838479 3.6640625 140.49609375 C2 142 2 142 0 142 C0 95.14 0 48.28 0 0 Z M29 29 C29 44.18 29 59.36 29 75 C34.49089253 70.31907476 34.49089253 70.31907476 39.8046875 65.4765625 C40.46243164 64.85571777 41.12017578 64.23487305 41.79785156 63.59521484 C42.48331055 62.94504395 43.16876953 62.29487305 43.875 61.625 C45.36702291 60.21336768 46.85921562 58.80191482 48.3515625 57.390625 C49.1137207 56.66939453 49.87587891 55.94816406 50.66113281 55.20507812 C53.00273809 52.99741853 55.35499654 50.80172255 57.7109375 48.609375 C58.47164551 47.89958496 59.23235352 47.18979492 60.01611328 46.45849609 C61.46773782 45.10459841 62.92171281 43.75321491 64.37841797 42.40478516 C68.23290921 38.80096211 71.71818473 35.13406963 75 31 C73.24073389 28.83188605 73.24073389 28.83188605 71.08908081 28.75949097 C70.31186676 28.76393219 69.53465271 28.76837341 68.73388672 28.77294922 C67.84080811 28.77319092 66.94772949 28.77343262 66.02758789 28.77368164 C65.08778076 28.78391357 64.14797363 28.79414551 63.1796875 28.8046875 C61.88526733 28.80770874 61.88526733 28.80770874 60.56469727 28.81079102 C57.33474427 28.82127144 54.10486691 28.84919395 50.875 28.875 C40.046875 28.936875 40.046875 28.936875 29 29 Z " fill="#8FC32C" transform="translate(379,173)"/>
<path d="M0 0 C8.82834934 8.24693292 13.87675845 17.75001762 14.3125 29.875 C14.15334353 36.7823906 12.36633177 43.02628101 8.6875 48.875 C8.130625 49.90625 7.57375 50.9375 7 52 C8.05279991 54.92953019 9.68877799 56.89481171 11.8125 59.125 C19.67696488 68.16240463 22.40269517 78.62436198 21.9375 90.4375 C20.6661421 102.75651967 14.77891026 112.66218917 5.9375 121.125 C-6.98802223 131.57045588 -21.83406983 134.20261569 -38 133 C-52.71878615 130.8443883 -64.08403908 123.59449672 -73.375 112.0625 C-80.46839577 102.01519721 -82.46655823 90.14734622 -80.5390625 78.125 C-78.13641488 68.1752122 -72.82142829 60.47108813 -66 53 C-66.40992188 52.38253906 -66.81984375 51.76507813 -67.2421875 51.12890625 C-72.9889711 42.09628227 -75.57410753 33.25414369 -73.53515625 22.5625 C-70.5098044 11.10554624 -64.34384702 2.33817975 -54.13671875 -3.69140625 C-36.42671692 -13.03022551 -16.27958025 -12.55058238 0 0 Z M-42.375 23.875 C-44.30167725 26.39450102 -44.92254838 27.82448346 -45 31 C-42.94018071 35.32562051 -40.74179608 38.15034337 -36.4375 40.25 C-31.01989514 41.43202288 -25.79947578 41.55133405 -20.8359375 38.80078125 C-17.86326971 36.4703565 -16.23589283 34.52795063 -14.6875 31.0625 C-15.15892301 26.44255452 -17.52378104 23.94739817 -21 21 C-28.67501865 17.3223869 -35.73909495 18.63612759 -42.375 23.875 Z M-49 78 C-52.05663157 82.33844481 -52.44391816 85.71967047 -51.62890625 90.82421875 C-50.37166975 95.17378851 -47.8333191 97.86508818 -44.03125 100.21875 C-37.00603325 103.88863935 -30.26241762 105.25945056 -22.4375 103.38671875 C-16.09317896 101.19135156 -11.25709177 97.99882092 -8 92 C-6.76152907 87.46374021 -6.96123371 83.86019071 -9.26953125 79.7265625 C-13.87313528 73.92623705 -19.37458856 70.57405249 -26.73828125 69.66015625 C-35.80945923 69.34649173 -42.57080342 71.57080342 -49 78 Z " fill="#E8C906" transform="translate(196,183)"/>
<path d="M0 0 C9.24 0 18.48 0 28 0 C28.33 18.48 28.66 36.96 29 56 C32.96 50.72 36.92 45.44 41 40 C43.26104335 37.0742242 45.52611518 34.15546302 47.8125 31.25 C53.71962018 23.70556193 59.48813744 16.06348488 65.20239258 8.37207031 C65.80075928 7.56866211 66.39912598 6.76525391 67.015625 5.9375 C67.54446289 5.22464844 68.07330078 4.51179687 68.61816406 3.77734375 C70 2 70 2 72 0 C74.72485728 -0.17517747 77.34659362 -0.23149133 80.0703125 -0.1953125 C80.86654022 -0.1924826 81.66276794 -0.18965271 82.48312378 -0.18673706 C85.03056763 -0.1755264 87.57766211 -0.15042062 90.125 -0.125 C91.85025535 -0.11497133 93.57551619 -0.10584528 95.30078125 -0.09765625 C99.53398914 -0.07558422 103.7669353 -0.04104867 108 0 C106.85088919 3.10840744 105.72131029 5.6565172 103.6015625 8.20703125 C103.12855713 8.78501465 102.65555176 9.36299805 102.16821289 9.95849609 C101.40432251 10.87622803 101.40432251 10.87622803 100.625 11.8125 C96.32081859 17.08523606 92.12389808 22.41286302 88.0625 27.875 C83.24817951 34.3451151 78.37317857 40.76498937 73.45141602 47.15380859 C72.44268087 48.46693792 71.43927728 49.78418441 70.44189453 51.10595703 C69.47361153 52.37787364 68.48445716 53.63414577 67.47607422 54.87451172 C64.70002268 58.23660273 64.70002268 58.23660273 64.20458984 62.38769531 C65.0681858 65.22393742 66.20611583 67.53392087 67.66796875 70.11328125 C68.22411865 71.10118652 68.78026855 72.0890918 69.35327148 73.10693359 C69.95856689 74.16477051 70.5638623 75.22260742 71.1875 76.3125 C71.815354 77.42189941 72.44320801 78.53129883 73.09008789 79.67431641 C77.86685696 88.08834332 82.74725797 96.44105624 87.64575195 104.78466797 C92.32464249 112.77944782 96.87298692 120.84229243 101.375 128.9375 C101.87784012 129.83937042 101.87784012 129.83937042 102.39083862 130.75946045 C103.33342181 132.45150341 104.27227459 134.14562286 105.2109375 135.83984375 C105.75024902 136.81300537 106.28956055 137.78616699 106.84521484 138.78881836 C108 141 108 141 108 142 C96.78 142 85.56 142 74 142 C72.63875 139.525 71.2775 137.05 69.875 134.5 C64.00046007 123.88206136 57.86915587 113.41599523 51.72900391 102.95019531 C48.81119688 97.97154802 45.90582341 92.98564825 43 88 C40.63139816 90.30959082 38.43473208 92.59094141 36.4765625 95.2578125 C36.01999268 95.87430664 35.56342285 96.49080078 35.09301758 97.12597656 C34.60857178 97.7856543 34.12412598 98.44533203 33.625 99.125 C29.0979977 105.22885509 24.49313267 111.26315903 19.8125 117.25 C10.88501821 128.62504942 10.88501821 128.62504942 2.38671875 140.3203125 C1.92910156 140.87460937 1.47148437 141.42890625 1 142 C0.34 142 -0.32 142 -1 142 C-1.02332804 123.63315619 -1.04097871 105.2663162 -1.05181217 86.89946079 C-1.05697533 78.37201506 -1.06401841 69.84457851 -1.07543945 61.31713867 C-1.08538568 53.88733745 -1.09185328 46.45754287 -1.09408849 39.02773517 C-1.09539571 35.0912668 -1.09848221 31.15481747 -1.10573006 27.21835518 C-1.11248931 23.51746673 -1.11461716 19.81660525 -1.11310768 16.11571121 C-1.11351638 14.10129198 -1.11891207 12.08687573 -1.12442017 10.07246399 C-1.1230455 8.8846936 -1.12167084 7.69692322 -1.12025452 6.47315979 C-1.12117631 5.4342991 -1.1220981 4.3954384 -1.12304783 3.32509708 C-1 1 -1 1 0 0 Z " fill="#FC67B7" transform="translate(15,173)"/>
<path d="M0 0 C3.98332605 2.60377964 6.01936408 5.93940806 7.25 10.5 C7.65845534 15.42647156 6.76441639 18.65822773 4.1875 22.875 C0.72534373 25.96884177 -2.14457575 27.76075293 -6.75 28.5 C-12.0575678 28.1768455 -15.97527444 26.27472556 -19.75 22.5 C-22.6471223 17.80747796 -22.36913416 12.84003209 -21.75 7.5 C-19.96049365 3.64567864 -18.48665715 2.00226624 -15 -0.375 C-9.65122947 -2.22649749 -5.09783153 -2.45612868 0 0 Z " fill="#6BEDD7" transform="translate(304.75,232.5)"/>
<path d="M0 0 C20.295 -0.061875 20.295 -0.061875 41 -0.125 C45.26035156 -0.14320801 49.52070313 -0.16141602 53.91015625 -0.18017578 C59.14257812 -0.18920898 59.14257812 -0.18920898 61.59790039 -0.19088745 C63.30005949 -0.19394358 65.00221445 -0.20094636 66.7043457 -0.21115112 C69.2938582 -0.22588987 71.8831078 -0.22780868 74.47265625 -0.22705078 C75.22144547 -0.234247 75.97023468 -0.24144321 76.74171448 -0.2488575 C81.79113069 -0.22920715 86.13997321 0.61811276 91 2 C91 2.33 91 2.66 91 3 C61.63 2.67 32.26 2.34 2 2 C2 46.22 2 90.44 2 136 C3.98 135.01 3.98 135.01 6 134 C6.99 134.33 7.98 134.66 9 135 C7.88121617 136.17262904 6.75476949 137.33795138 5.625 138.5 C4.68527344 139.47453125 4.68527344 139.47453125 3.7265625 140.46875 C2 142 2 142 0 142 C0 95.14 0 48.28 0 0 Z " fill="#96BE45" transform="translate(379,173)"/>
<path d="M0 0 C1.16781006 0.00523682 2.33562012 0.01047363 3.53881836 0.01586914 C4.79887695 0.0190918 6.05893555 0.02231445 7.35717773 0.02563477 C8.6976732 0.03399136 10.03816799 0.04245632 11.37866211 0.05102539 C12.72306153 0.05603879 14.06746271 0.06060197 15.41186523 0.06469727 C18.71334151 0.07653051 22.01473014 0.09301568 25.31616211 0.11352539 C25.44686167 7.36320089 25.57727225 14.61288152 25.70731354 21.86256886 C25.76770544 25.22885708 25.82819701 28.59514344 25.88891602 31.96142578 C25.95866609 35.8311316 26.02807329 39.70084344 26.09741211 43.57055664 C26.11928589 44.78000443 26.14115967 45.98945221 26.16369629 47.23554993 C26.18371704 48.35648544 26.20373779 49.47742096 26.22436523 50.63232422 C26.25101257 52.11458244 26.25101257 52.11458244 26.27819824 53.62678528 C26.3061168 55.45552933 26.31616211 57.28456824 26.31616211 59.11352539 C25.65616211 59.11352539 24.99616211 59.11352539 24.31616211 59.11352539 C23.98616211 40.30352539 23.65616211 21.49352539 23.31616211 2.11352539 C15.06616211 2.11352539 6.81616211 2.11352539 -1.68383789 2.11352539 C-1.35383789 45.67352539 -1.02383789 89.23352539 -0.68383789 134.11352539 C0.63616211 134.11352539 1.95616211 134.11352539 3.31616211 134.11352539 C1.94672109 137.06309067 0.43785802 139.6382135 -1.68383789 142.11352539 C-2.34383789 142.11352539 -3.00383789 142.11352539 -3.68383789 142.11352539 C-3.70716593 123.74668158 -3.7248166 105.37984159 -3.73565006 87.01298618 C-3.74081322 78.48554045 -3.7478563 69.9581039 -3.75927734 61.43066406 C-3.76922357 54.00086284 -3.77569117 46.57106826 -3.77792639 39.14126056 C-3.7792336 35.20479219 -3.7823201 31.26834286 -3.78956795 27.33188057 C-3.7963272 23.63099212 -3.79845505 19.93013064 -3.79694557 16.2292366 C-3.79735427 14.21481737 -3.80274996 12.20040112 -3.80825806 10.18598938 C-3.80688339 8.99821899 -3.80550873 7.81044861 -3.80409241 6.58668518 C-3.8050142 5.54782449 -3.80593599 4.50896379 -3.80688572 3.43862247 C-3.62949282 0.08662744 -3.38250546 0.14307878 0 0 Z " fill="#F0A0CF" transform="translate(17.683837890625,172.886474609375)"/>
<path d="M0 0 C27.39 0 54.78 0 83 0 C83 0.33 83 0.66 83 1 C55.94 1 28.88 1 1 1 C1.33 46.54 1.66 92.08 2 139 C2.66 139.33 3.32 139.66 4 140 C2.02 140.99 2.02 140.99 0 142 C0 95.14 0 48.28 0 0 Z " fill="#C2DC94" transform="translate(379,173)"/>
<path d="M0 0 C2.95857409 -0.05379226 5.91617721 -0.09357093 8.875 -0.125 C9.71675781 -0.14175781 10.55851562 -0.15851563 11.42578125 -0.17578125 C12.23144531 -0.18222656 13.03710938 -0.18867188 13.8671875 -0.1953125 C14.61081543 -0.20578613 15.35444336 -0.21625977 16.12060547 -0.22705078 C18 0 18 0 20 2 C20.825 2.309375 21.65 2.61875 22.5 2.9375 C25 4 25 4 27 7 C27.99 7.33 28.98 7.66 30 8 C30 8.66 30 9.32 30 10 C30.66 10 31.32 10 32 10 C32 14.29 32 18.58 32 23 C31.67 23 31.34 23 31 23 C30.99613281 22.14728516 30.99613281 22.14728516 30.9921875 21.27734375 C30.71941391 15.83096436 29.70577572 12.44043007 25.85546875 8.5078125 C20.01657346 3.7629418 14.08672845 2.37392989 6.64453125 2.67578125 C0.50188459 3.42886792 -4.58271653 5.58271653 -9 10 C-11.14992217 13.60879792 -12.38942457 16.84808707 -13 21 C-13.33 21 -13.66 21 -14 21 C-14 18.03 -14 15.06 -14 12 C-13.34 12 -12.68 12 -12 12 C-12 10.02 -12 8.04 -12 6 C-10.02 6 -8.04 6 -6 6 C-6 5.34 -6 4.68 -6 4 C-3 2 -3 2 0 2 C0 1.34 0 0.68 0 0 Z " fill="#E5CE40" transform="translate(157,251)"/>
<path d="M0 0 C1.51289503 0.00031716 3.0258126 0.01164445 4.53857422 0.03173828 C5.33480194 0.03456818 6.13102966 0.03739807 6.9513855 0.04031372 C9.49882935 0.05152438 12.04592383 0.07663016 14.59326172 0.10205078 C16.31851706 0.11207945 18.04377791 0.1212055 19.76904297 0.12939453 C24.00225086 0.15146656 28.23519702 0.18600212 32.46826172 0.22705078 C31.10890942 3.76906119 29.68086297 6.54132309 27.34326172 9.53955078 C26.80443359 10.23693359 26.26560547 10.93431641 25.71044922 11.65283203 C25.30052734 12.17232422 24.89060547 12.69181641 24.46826172 13.22705078 C23.47826172 11.90705078 22.48826172 10.58705078 21.46826172 9.22705078 C22.12826172 8.23705078 22.78826172 7.24705078 23.46826172 6.22705078 C24.12826172 6.55705078 24.78826172 6.88705078 25.46826172 7.22705078 C25.79826172 6.23705078 26.12826172 5.24705078 26.46826172 4.22705078 C25.80826172 4.22705078 25.14826172 4.22705078 24.46826172 4.22705078 C24.46826172 3.56705078 24.46826172 2.90705078 24.46826172 2.22705078 C15.22826172 2.55705078 5.98826172 2.88705078 -3.53173828 3.22705078 C-3.86173828 4.54705078 -4.19173828 5.86705078 -4.53173828 7.22705078 C-5.19173828 7.22705078 -5.85173828 7.22705078 -6.53173828 7.22705078 C-5.75705969 2.32075302 -5.40014719 0.34716832 0 0 Z " fill="#F3A7D3" transform="translate(90.53173828125,172.77294921875)"/>
<path d="M0 0 C0.99 0.33 1.98 0.66 3 1 C4.1875 3.5625 4.1875 3.5625 5 6 C5.33 6 5.66 6 6 6 C6 8.31 6 10.62 6 13 C6.66 13 7.32 13 8 13 C12.40869448 21.81738896 9.78565718 39.57646098 6.9296875 48.8515625 C5.71189074 51.66579871 4.12624705 53.80287805 2 56 C1.67 56.99 1.34 57.98 1 59 C0.34 59 -0.32 59 -1 59 C-0.56880859 57.93458984 -0.56880859 57.93458984 -0.12890625 56.84765625 C0.97703075 54.05793974 2.03162231 51.25575498 3.0625 48.4375 C3.40410156 47.50808594 3.74570312 46.57867187 4.09765625 45.62109375 C8.49423877 32.85006834 6.84896103 18.35246278 2 6 C1.32495937 4.00281083 0.65601909 2.00351776 0 0 Z " fill="#97EDDF" transform="translate(333,217)"/>
<path d="M0 0 C7.93209862 11.89814792 5.38141262 31.65621687 3 45 C2.67 45 2.34 45 2 45 C1.97494385 44.03586182 1.9498877 43.07172363 1.92407227 42.07836914 C1.83014694 38.51312158 1.72989061 34.94807567 1.62768555 31.38305664 C1.58428015 29.83785711 1.54260929 28.29260786 1.50268555 26.74731445 C1.44511801 24.53060904 1.38138576 22.3141552 1.31640625 20.09765625 C1.29969376 19.4028566 1.28298126 18.70805695 1.26576233 17.99220276 C1.43497144 14.71237971 1.43497144 14.71237971 0 12 C-0.07244053 9.98035801 -0.08377188 7.95832876 -0.0625 5.9375 C-0.05347656 4.83277344 -0.04445313 3.72804687 -0.03515625 2.58984375 C-0.02355469 1.73519531 -0.01195312 0.88054687 0 0 Z " fill="#9FEDE0" transform="translate(365,219)"/>
<path d="M0 0 C8 9.42857143 8 9.42857143 8 14 C-2.89 14 -13.78 14 -25 14 C-25.33 13.34 -25.66 12.68 -26 12 C-16.1 12 -6.2 12 4 12 C2.68 9.36 1.36 6.72 0 4 C0 2.68 0 1.36 0 0 Z " fill="#A3C45F" transform="translate(479,301)"/>
<path d="M0 0 C3.00469351 2.59496258 3.36858796 3.9214699 5 8 C-6.22 8 -17.44 8 -29 8 C-29.33 6.68 -29.66 5.36 -30 4 C-29.01 4.33 -28.02 4.66 -27 5 C-24.86338742 5.15070797 -22.72287876 5.2485966 -20.58203125 5.31640625 C-19.32841797 5.35830078 -18.07480469 5.40019531 -16.78320312 5.44335938 C-14.81770508 5.50233398 -14.81770508 5.50233398 -12.8125 5.5625 C-11.47720022 5.60570992 -10.14191348 5.649325 -8.80664062 5.69335938 C-5.53786703 5.79956502 -2.26901667 5.90160997 1 6 C0.67 4.02 0.34 2.04 0 0 Z " fill="#E87EB6" transform="translate(118,307)"/>
<path d="M0 0 C1.45116211 -0.04350586 1.45116211 -0.04350586 2.93164062 -0.08789062 C4.32479492 -0.10045898 4.32479492 -0.10045898 5.74609375 -0.11328125 C6.59743896 -0.12786377 7.44878418 -0.14244629 8.32592773 -0.1574707 C10.5625 0.3125 10.5625 0.3125 12.36352539 2.33911133 C12.75918701 2.99032959 13.15484863 3.64154785 13.5625 4.3125 C12.973479 4.30202637 12.38445801 4.29155273 11.77758789 4.28076172 C9.06010354 4.23870446 6.34268804 4.2130182 3.625 4.1875 C2.69880859 4.17074219 1.77261719 4.15398437 0.81835938 4.13671875 C-5.25622962 4.09409006 -10.55585079 4.78025498 -16.4375 6.3125 C-16.7675 5.6525 -17.0975 4.9925 -17.4375 4.3125 C-16.1175 4.3125 -14.7975 4.3125 -13.4375 4.3125 C-13.1075 3.3225 -12.7775 2.3325 -12.4375 1.3125 C-8.67035688 -0.57107156 -4.1457707 0.04126514 0 0 Z " fill="#8BECDC" transform="translate(295.4375,194.6875)"/>
<path d="M0 0 C4.62 0 9.24 0 14 0 C14 0.66 14 1.32 14 2 C16.39614575 1.85834107 18.79182897 1.71181159 21.1875 1.5625 C21.86103516 1.52318359 22.53457031 1.48386719 23.22851562 1.44335938 C26.08237117 1.26238317 28.84995598 1.0300088 31.65625 0.46875 C34.26359932 -0.05271986 36.65659912 -0.09791201 39.3125 -0.0625 C40.63701172 -0.04896484 40.63701172 -0.04896484 41.98828125 -0.03515625 C42.98408203 -0.01775391 42.98408203 -0.01775391 44 0 C31.87351561 8.08432292 13.3169138 3.62279193 0 1 C0 0.67 0 0.34 0 0 Z " fill="#A2EFE3" transform="translate(275,317)"/>
<path d="M0 0 C-0.33 0.66 -0.66 1.32 -1 2 C-3.20835726 1.50925394 -5.11167794 0.9471848 -7.1640625 -0.0234375 C-10.70526162 -1.24285868 -13.98936235 -1.29852166 -17.6875 -1.25 C-18.39358398 -1.24685791 -19.09966797 -1.24371582 -19.82714844 -1.24047852 C-24.70776539 -1.16411436 -29.25335976 -0.60530762 -33.984375 0.66015625 C-36.28248087 1.04762759 -37.7999365 0.70857901 -40 0 C-38.60550891 -0.483059 -37.20933293 -0.96125517 -35.8125 -1.4375 C-35.03519531 -1.70433594 -34.25789062 -1.97117188 -33.45703125 -2.24609375 C-21.84805952 -5.80814708 -11.21678771 -4.11221022 0 0 Z " fill="#EADA64" transform="translate(186,177)"/>
<path d="M0 0 C3.42236891 0.95065803 4.90978128 1.89474482 7.25 4.625 C10.05741172 10.03929404 10.63637567 13.87874777 8.875 19.75 C6.94288066 23.09900686 5.17981399 24.85147703 2 27 C0.68 26.34 -0.64 25.68 -2 25 C-0.68 25 0.64 25 2 25 C2 24.34 2 23.68 2 23 C2.99 23 3.98 23 5 23 C5 22.01 5 21.02 5 20 C5.66 20 6.32 20 7 20 C6.91284983 18.06166004 6.80467036 16.1242571 6.6875 14.1875 C6.62949219 13.10855469 6.57148438 12.02960938 6.51171875 10.91796875 C5.9568427 7.75390454 5.36735977 7.01193847 3 5 C3 4.34 3 3.68 3 3 C2.34 3 1.68 3 1 3 C0.67 2.01 0.34 1.02 0 0 Z " fill="#9EEDE0" transform="translate(302,232)"/>
<path d="M0 0 C0.33 0 0.66 0 1 0 C1 17.82 1 35.64 1 54 C2.32 53.34 3.64 52.68 5 52 C5.99 52.33 6.98 52.66 8 53 C6.1875 55 6.1875 55 4 57 C3.01 57 2.02 57 1 57 C-0.28566729 54.42866541 -0.12009778 52.602829 -0.11352539 49.72412109 C-0.11344986 48.6231308 -0.11337433 47.5221405 -0.11329651 46.38778687 C-0.10813522 45.19505157 -0.10297394 44.00231628 -0.09765625 42.7734375 C-0.0962413 41.55548492 -0.09482635 40.33753235 -0.09336853 39.08267212 C-0.08775639 35.1800901 -0.07520179 31.27756477 -0.0625 27.375 C-0.05748657 24.73437583 -0.05292339 22.09375076 -0.04882812 19.453125 C-0.03778301 12.96873055 -0.02103302 6.48436932 0 0 Z " fill="#9BC148" transform="translate(380,255)"/>
<path d="M0 0 C6.95209142 6.17963682 10.59754901 14.26152569 11.15234375 23.55078125 C11.20919065 27.81429873 11.1057253 31.85353011 10 36 C9.67 36 9.34 36 9 36 C8.34 27.75 7.68 19.5 7 11 C5.68 10.67 4.36 10.34 3 10 C1.31157047 6.80087037 0.60840923 3.54905382 0 0 Z " fill="#EAD961" transform="translate(199,187)"/>
<path d="M0 0 C0.33 0.66 0.66 1.32 1 2 C-0.60066918 4.27337067 -2.20535193 6.54371657 -3.8125 8.8125 C-4.26431641 9.45509766 -4.71613281 10.09769531 -5.18164062 10.75976562 C-5.84389648 11.69272461 -5.84389648 11.69272461 -6.51953125 12.64453125 C-6.92276611 13.21534424 -7.32600098 13.78615723 -7.74145508 14.37426758 C-9 16 -9 16 -10.5300293 17.5222168 C-12.23108926 19.1369909 -12.23108926 19.1369909 -14 22 C-14.99 22 -15.98 22 -17 22 C-14.89429279 17.53349844 -12.02025082 13.80694461 -9.0625 9.875 C-8.52431641 9.14667969 -7.98613281 8.41835937 -7.43164062 7.66796875 C-6.90892578 6.97058594 -6.38621094 6.27320313 -5.84765625 5.5546875 C-5.1362146 4.60311768 -5.1362146 4.60311768 -4.41040039 3.63232422 C-3 2 -3 2 0 0 Z " fill="#F284BD" transform="translate(82,181)"/>
<path d="M0 0 C2.55742127 1.27871063 2.63593158 2.09157333 3.5625 4.75 C6.41427972 13.90188491 7.03105505 23.8182075 4 33 C3.34 33.99 2.68 34.98 2 36 C2.01047363 35.18321777 2.02094727 34.36643555 2.03173828 33.52490234 C2.07342671 29.80829978 2.09936727 26.09174654 2.125 22.375 C2.14175781 21.08980469 2.15851563 19.80460937 2.17578125 18.48046875 C2.18222656 17.23652344 2.18867188 15.99257813 2.1953125 14.7109375 C2.20578613 13.56931152 2.21625977 12.42768555 2.22705078 11.25146484 C1.99015621 7.85903264 1.16123433 5.18062256 0 2 C0 1.34 0 0.68 0 0 Z " fill="#E8D85D" transform="translate(212,250)"/>
<path d="M0 0 C0.33 0 0.66 0 1 0 C1.18175781 1.22976563 1.36351563 2.45953125 1.55078125 3.7265625 C1.80416139 5.35945672 2.05809708 6.99226481 2.3125 8.625 C2.43044922 9.43324219 2.54839844 10.24148438 2.66992188 11.07421875 C3.44076443 15.93645637 4.69778899 19.60193863 7 24 C7 25.32 7 26.64 7 28 C7.66 28 8.32 28 9 28 C10.6875 30.375 10.6875 30.375 12 33 C11.67 33.66 11.34 34.32 11 35 C3.68135174 26.26641308 -0.18844098 17.14812928 -0.0625 5.6875 C-0.05347656 4.61886719 -0.04445313 3.55023438 -0.03515625 2.44921875 C-0.02355469 1.64097656 -0.01195313 0.83273437 0 0 Z " fill="#EDDA68" transform="translate(115,264)"/>
<path d="M0 0 C0.99 0 1.98 0 3 0 C3 1.65 3 3.3 3 5 C3.66 5 4.32 5 5 5 C5 5.66 5 6.32 5 7 C5.66 7 6.32 7 7 7 C8.46985575 9.33447678 9.00714985 10.71400597 8.9375 13.5 C7.69170897 16.82210941 5.92562542 18.07336862 3 20 C2.34 20 1.68 20 1 20 C1 20.66 1 21.32 1 22 C0.34 22 -0.32 22 -1 22 C0.66751148 18.05860922 3.22710649 15.2107188 6 12 C5.566875 11.30132812 5.13375 10.60265625 4.6875 9.8828125 C4.130625 8.97273437 3.57375 8.06265625 3 7.125 C2.443125 6.22007812 1.88625 5.31515625 1.3125 4.3828125 C0 2 0 2 0 0 Z " fill="#E7D54B" transform="translate(124,224)"/>
<path d="M0 0 C0.66 0 1.32 0 2 0 C0.58419794 4.55374932 -1.95510872 7.37907589 -5.3125 10.625 C-6.0230957 11.34042969 -6.0230957 11.34042969 -6.74804688 12.0703125 C-9.61155862 14.89073447 -12.46960155 17.08368172 -16 19 C-15.67 16.69 -15.34 14.38 -15 12 C-13.35 12.33 -11.7 12.66 -10 13 C-10 12.01 -10 11.02 -10 10 C-9.34 10 -8.68 10 -8 10 C-7.67 9.01 -7.34 8.02 -7 7 C-6.34 7 -5.68 7 -5 7 C-4.67 5.68 -4.34 4.36 -4 3 C-3.34 3.33 -2.68 3.66 -2 4 C-1.34 2.68 -0.68 1.36 0 0 Z " fill="#B1D170" transform="translate(481,215)"/>
<path d="M0 0 C0.67804688 0.47050781 1.35609375 0.94101562 2.0546875 1.42578125 C13.24826606 8.91400624 22.73711876 10.48716859 36 11 C36 11.33 36 11.66 36 12 C33.47909222 12.0272367 30.95848543 12.04695207 28.4375 12.0625 C27.38079102 12.07506836 27.38079102 12.07506836 26.30273438 12.08789062 C21.75975202 12.10882603 17.48215108 11.74800682 13 11 C13 10.34 13 9.68 13 9 C12.39671875 8.87882812 11.7934375 8.75765625 11.171875 8.6328125 C9.97304688 8.38144531 9.97304688 8.38144531 8.75 8.125 C7.96109375 7.96257812 7.1721875 7.80015625 6.359375 7.6328125 C4.03168856 7.00849925 2.10968048 6.15161458 0 5 C0 3.35 0 1.7 0 0 Z " fill="#AFF2E8" transform="translate(268,282)"/>
<path d="M0 0 C0.391875 0.556875 0.78375 1.11375 1.1875 1.6875 C5.75231205 7.51157055 10.59596164 11.59155291 18 13 C20.24907152 13.06790675 22.50001605 13.08499984 24.75 13.0625 C25.92046875 13.05347656 27.0909375 13.04445313 28.296875 13.03515625 C29.18890625 13.02355469 30.0809375 13.01195312 31 13 C30.67 13.66 30.34 14.32 30 15 C16.53691054 15.36441445 16.53691054 15.36441445 10 13 C8.66869885 12.65864073 7.33641852 12.32074044 6 12 C6 11.34 6 10.68 6 10 C5.38125 9.938125 4.7625 9.87625 4.125 9.8125 C2 9 2 9 0.75 6.6875 C0 4 0 4 0 0 Z " fill="#EADA61" transform="translate(144,273)"/>
<path d="M0 0 C4.81409862 5.45597844 6.28444372 10.26681872 6.25 17.5 C6.25515625 18.5828125 6.2603125 19.665625 6.265625 20.78125 C5.98879794 24.13574256 5.19052385 26.86306413 4 30 C3.67 30 3.34 30 3 30 C3.03480469 28.7934375 3.06960938 27.586875 3.10546875 26.34375 C3.13362984 24.72918072 3.16092749 23.11459621 3.1875 21.5 C3.21263672 20.70851562 3.23777344 19.91703125 3.26367188 19.1015625 C3.33458526 13.33394034 2.16894993 9.32844391 0 4 C0 2.68 0 1.36 0 0 Z " fill="#B3D175" transform="translate(481,184)"/>
<path d="M0 0 C0.6837045 1.32467746 1.34964186 2.65863633 2 4 C4.7600266 6.13104981 4.7600266 6.13104981 7.5 6.4375 C10.29500716 7.06637661 11.28566845 7.74430059 13 10 C13 10.66 13 11.32 13 12 C6.2807114 10.68535658 1.26262363 7.31977698 -4 3 C-4.66 2.01 -5.32 1.02 -6 0 C-3 -1 -3 -1 0 0 Z " fill="#E9D755" transform="translate(135,301)"/>
<path d="M0 0 C1.03382813 -0.01675781 2.06765625 -0.03351563 3.1328125 -0.05078125 C5.875 0.3125 5.875 0.3125 7.7421875 1.83203125 C8.30292969 2.56486328 8.30292969 2.56486328 8.875 3.3125 C7.80572266 3.15201172 7.80572266 3.15201172 6.71484375 2.98828125 C-0.58592426 2.07445699 -4.93921167 2.24292189 -11 6.6875 C-12.52327257 8.88778261 -12.86613947 10.65917956 -13.125 13.3125 C-12.75643136 15.54417185 -12.75643136 15.54417185 -12.125 17.3125 C-12.785 17.3125 -13.445 17.3125 -14.125 17.3125 C-15.36700301 14.82849398 -15.10721651 13.49042364 -14.8125 10.75 C-14.73386719 9.94433594 -14.65523437 9.13867188 -14.57421875 8.30859375 C-14.42597656 7.64988281 -14.27773437 6.99117187 -14.125 6.3125 C-13.465 5.9825 -12.805 5.6525 -12.125 5.3125 C-11.795 4.3225 -11.465 3.3325 -11.125 2.3125 C-7.42408006 0.32939057 -4.15707553 0.0156281 0 0 Z " fill="#EBD960" transform="translate(165.125,200.6875)"/>
<path d="M0 0 C10.23 0.33 20.46 0.66 31 1 C31 1.33 31 1.66 31 2 C26.59154275 3.08475818 22.26469154 3.19147114 17.75 3.1875 C16.6209021 3.1884668 16.6209021 3.1884668 15.46899414 3.18945312 C10.05796378 3.13805856 5.21703978 2.5176843 0 1 C0 0.67 0 0.34 0 0 Z " fill="#ECD85D" transform="translate(149,313)"/>
<path d="M0 0 C8.39238953 0.35188216 8.39238953 0.35188216 10.875 3 C11.431875 3.99 11.431875 3.99 12 5 C12.99 5.33 13.98 5.66 15 6 C15 6.66 15 7.32 15 8 C15.66 8 16.32 8 17 8 C17 12.29 17 16.58 17 21 C16.67 21 16.34 21 16 21 C15.99742187 20.43152344 15.99484375 19.86304688 15.9921875 19.27734375 C15.7195407 13.83349594 14.68619125 10.48033473 10.8984375 6.5078125 C7.6140036 3.89918805 3.92444905 2.40408066 0 1 C0 0.67 0 0.34 0 0 Z " fill="#F0E26C" transform="translate(172,253)"/>
<path d="M0 0 C1.65 0.33 3.3 0.66 5 1 C5.33 3.31 5.66 5.62 6 8 C5.01 8.495 5.01 8.495 4 9 C3.01 7.35 2.02 5.7 1 4 C-0.65 5.32 -2.3 6.64 -4 8 C-4 7.01 -4 6.02 -4 5 C-4.99 4.67 -5.98 4.34 -7 4 C-6 3 -6 3 -3.4375 2.9375 C-2.2309375 2.9684375 -2.2309375 2.9684375 -1 3 C-0.67 2.01 -0.34 1.02 0 0 Z " fill="#F487C1" transform="translate(57,257)"/>
<path d="M0 0 C0 0.66 0 1.32 0 2 C-0.99 2 -1.98 2 -3 2 C-3.226875 2.556875 -3.45375 3.11375 -3.6875 3.6875 C-5.92538376 7.63043806 -8.38810145 10.53434042 -12.8125 11.8125 C-13.534375 11.874375 -14.25625 11.93625 -15 12 C-13.53072232 8.38270223 -11.60198385 6.6339522 -8.5 4.3125 C-7.7059375 3.71050781 -6.911875 3.10851562 -6.09375 2.48828125 C-2.59317585 0 -2.59317585 0 0 0 Z " fill="#E8D54D" transform="translate(146,178)"/>
<path d="M0 0 C0.99 0.33 1.98 0.66 3 1 C1.40207236 2.65189143 -0.20355876 4.2963339 -1.8125 5.9375 C-2.70582031 6.85402344 -3.59914063 7.77054688 -4.51953125 8.71484375 C-7 11 -7 11 -10 12 C-10.33 10.68 -10.66 9.36 -11 8 C-10.01 7.67 -9.02 7.34 -8 7 C-7.67 6.01 -7.34 5.02 -7 4 C-5.35 4 -3.7 4 -2 4 C-1.34 2.68 -0.68 1.36 0 0 Z " fill="#AECF69" transform="translate(460,236)"/>
<path d="M0 0 C0.66 0.33 1.32 0.66 2 1 C0.591546 5.22536201 -1.84063918 5.85598505 -5.65234375 7.85546875 C-10.46373233 10.20112075 -13.73958173 11.54718184 -19 10 C-19 9.67 -19 9.34 -19 9 C-18.3709375 8.84144531 -17.741875 8.68289063 -17.09375 8.51953125 C-10.87821595 6.82523658 -4.66735994 4.66735994 0 0 Z " fill="#95EFE0" transform="translate(324,283)"/>
<path d="M0 0 C0.56460937 0.23074219 1.12921875 0.46148437 1.7109375 0.69921875 C-1.37844759 4.75955344 -3.28294767 7.1973843 -8.2890625 8.69921875 C-9.2171875 9.07046875 -10.1453125 9.44171875 -11.1015625 9.82421875 C-11.8234375 10.11296875 -12.5453125 10.40171875 -13.2890625 10.69921875 C-11.8219452 7.14185368 -9.9184206 5.25726708 -6.9140625 2.88671875 C-6.14320313 2.26152344 -5.37234375 1.63632813 -4.578125 0.9921875 C-2.2890625 -0.30078125 -2.2890625 -0.30078125 0 0 Z " fill="#7EEAD8" transform="translate(258.2890625,181.30078125)"/>
<path d="M0 0 C0.66 0 1.32 0 2 0 C0.47157831 4.62000192 -2.03277015 7.97737919 -5 11.75 C-5.45117188 12.33910156 -5.90234375 12.92820312 -6.3671875 13.53515625 C-9.7324953 17.86624765 -9.7324953 17.86624765 -12 19 C-12 18.01 -12 17.02 -12 16 C-11.34 16 -10.68 16 -10 16 C-10 15.01 -10 14.02 -10 13 C-9.34 13 -8.68 13 -8 13 C-8 12.34 -8 11.68 -8 11 C-7.34 11 -6.68 11 -6 11 C-6 10.01 -6 9.02 -6 8 C-5.34 8 -4.68 8 -4 8 C-3.67 6.35 -3.34 4.7 -3 3 C-2.01 3 -1.02 3 0 3 C0 2.01 0 1.02 0 0 Z " fill="#F199C9" transform="translate(45,272)"/>
<path d="M0 0 C1.32 0.33 2.64 0.66 4 1 C2.3603125 2.051875 2.3603125 2.051875 0.6875 3.125 C-3.70837179 6.26871437 -5.43327629 9.63006449 -6.6875 14.875 C-6.790625 15.57625 -6.89375 16.2775 -7 17 C-7.33 17 -7.66 17 -8 17 C-8 14.03 -8 11.06 -8 8 C-7.34 8 -6.68 8 -6 8 C-6 6.02 -6 4.04 -6 2 C-4.02 2 -2.04 2 0 2 C0 1.34 0 0.68 0 0 Z " fill="#ECD758" transform="translate(151,255)"/>
<path d="M0 0 C0 3.93169105 -1.39419615 5.16427228 -4 8 C-4.66 8 -5.32 8 -6 8 C-6.226875 8.598125 -6.45375 9.19625 -6.6875 9.8125 C-8.3611297 12.60188284 -10.08817726 13.6168842 -13 15 C-13.66 14.67 -14.32 14.34 -15 14 C-13.44073252 12.41348318 -11.87743482 10.83092685 -10.3125 9.25 C-9.44238281 8.36828125 -8.57226562 7.4865625 -7.67578125 6.578125 C-5.21997532 4.21194702 -2.69858952 2.08107444 0 0 Z " fill="#B5D479" transform="translate(443,215)"/>
<path d="M0 0 C1.32 0.33 2.64 0.66 4 1 C2.72624115 5.97923913 0.9988211 8.74514561 -3 12 C-5.8125 12.8125 -5.8125 12.8125 -8 13 C-7.60167969 12.54109375 -7.20335937 12.0821875 -6.79296875 11.609375 C-4.08857938 8.47728415 -1.42008229 5.36122541 1 2 C0.67 1.34 0.34 0.68 0 0 Z " fill="#B0D06D" transform="translate(452,202)"/>
<path d="M0 0 C0.33 0 0.66 0 1 0 C1.33 5.28 1.66 10.56 2 16 C3.32 16 4.64 16 6 16 C4.79618552 18.49361571 3.54571278 20.68143083 2 23 C1.34 23 0.68 23 0 23 C0 15.41 0 7.82 0 0 Z " fill="#E886B9" transform="translate(15,291)"/>
<path d="M0 0 C2.31 0 4.62 0 7 0 C7 0.66 7 1.32 7 2 C8.32 2 9.64 2 11 2 C11 2.66 11 3.32 11 4 C12.65 4.33 14.3 4.66 16 5 C16 6.32 16 7.64 16 9 C10.66666667 6.33333333 5.33333333 3.66666667 0 1 C0 0.67 0 0.34 0 0 Z " fill="#9AEDDF" transform="translate(310,199)"/>
<path d="M0 0 C0.33 0 0.66 0 1 0 C1.25 5.625 1.25 5.625 -1 9 C-1.66 9 -2.32 9 -3 9 C-3.33 11.64 -3.66 14.28 -4 17 C-4.66 17 -5.32 17 -6 17 C-5.62964591 10.21017493 -3.59523599 5.73115109 0 0 Z " fill="#EAD868" transform="translate(122,246)"/>
<path d="M0 0 C0 6.2385352 -2.19721316 11.12767936 -6 16 C-6.66 16 -7.32 16 -8 16 C-6.25267359 9.73519555 -4.02879721 5.11766132 0 0 Z " fill="#9BEDE0" transform="translate(239,198)"/>
<path d="M0 0 C5.01202555 2.98334854 8.38748484 6.43951988 12 11 C11.67 11.66 11.34 12.32 11 13 C8.0625 11.75 8.0625 11.75 5 10 C4.375 8.0625 4.375 8.0625 4 6 C2.68671343 4.64691687 1.35500919 3.31129922 0 2 C0 1.34 0 0.68 0 0 Z " fill="#8FEDDB" transform="translate(343,186)"/>
<path d="M0 0 C0.99 0.33 1.98 0.66 3 1 C0.03 4.63 -2.94 8.26 -6 12 C-7 8 -7 8 -7 5 C-5.35 5 -3.7 5 -2 5 C-2 3.68 -2 2.36 -2 1 C-1.34 0.67 -0.68 0.34 0 0 Z " fill="#F392C7" transform="translate(89,215)"/>
<path d="M0 0 C2.49552403 2.27597646 4.06622986 4.60721178 5.6875 7.5625 C6.12449219 8.34753906 6.56148438 9.13257813 7.01171875 9.94140625 C8 12 8 12 8 14 C6 14 6 14 4.5 12.625 C4.005 12.08875 3.51 11.5525 3 11 C2.34 10.34 1.68 9.68 1 9 C0.5859375 6.8359375 0.5859375 6.8359375 0.375 4.375 C0.30023438 3.55773437 0.22546875 2.74046875 0.1484375 1.8984375 C0.09945312 1.27195312 0.05046875 0.64546875 0 0 Z " fill="#F396C7" transform="translate(105,284)"/>
<path d="M0 0 C2.49552403 2.27597646 4.06622986 4.60721178 5.6875 7.5625 C6.12449219 8.34753906 6.56148438 9.13257813 7.01171875 9.94140625 C8 12 8 12 8 14 C5 13 5 13 3.4375 10 C2.963125 9.01 2.48875 8.02 2 7 C1.34 6.67 0.68 6.34 0 6 C0 4.02 0 2.04 0 0 Z " fill="#B1CF6F" transform="translate(468,282)"/>
<path d="M0 0 C0.99 0.33 1.98 0.66 3 1 C2.28673733 2.13514994 1.553519 3.25777135 0.8125 4.375 C0.40644531 5.00148438 0.00039063 5.62796875 -0.41796875 6.2734375 C-2.38304464 8.41803884 -4.26923006 9.0912732 -7 10 C-6.02223933 8.51990357 -5.0427506 7.04094856 -4.0625 5.5625 C-3.51722656 4.73878906 -2.97195313 3.91507812 -2.41015625 3.06640625 C-1 1 -1 1 0 0 Z " fill="#85EAD8" transform="translate(331,276)"/>
<path d="M0 0 C1.98 0 3.96 0 6 0 C2.11327187 3.18005028 -1.89952133 6.10554447 -6 9 C-6 7.35 -6 5.7 -6 4 C-4.35 3.67 -2.7 3.34 -1 3 C-0.67 2.01 -0.34 1.02 0 0 Z " fill="#94EDDD" transform="translate(273,201)"/>
<path d="M0 0 C2.49552403 2.27597646 4.06622986 4.60721178 5.6875 7.5625 C6.12449219 8.34753906 6.56148438 9.13257813 7.01171875 9.94140625 C8 12 8 12 8 14 C4.37720616 12.79240205 4.08839169 11.94596794 2.3125 8.6875 C1.87550781 7.90761719 1.43851562 7.12773437 0.98828125 6.32421875 C0 4 0 4 0 0 Z " fill="#F199C8" transform="translate(93,263)"/>
<path d="M0 0 C5.59282842 1.36410449 8.91193811 4.15383526 13 8 C11.68 8.33 10.36 8.66 9 9 C9 8.34 9 7.68 9 7 C8.34 7 7.68 7 7 7 C7 6.34 7 5.68 7 5 C5.5459375 4.5978125 5.5459375 4.5978125 4.0625 4.1875 C3.051875 3.795625 2.04125 3.40375 1 3 C0.67 2.01 0.34 1.02 0 0 Z " fill="#E9D85B" transform="translate(186,178)"/>
<path d="M0 0 C1.65 0 3.3 0 5 0 C1.50640535 3.59634744 -2.11098131 6.83451967 -6 10 C-5.75 7.125 -5.75 7.125 -5 4 C-3 2.75 -3 2.75 -1 2 C-0.67 1.34 -0.34 0.68 0 0 Z " fill="#AACD62" transform="translate(412,280)"/>
<path d="M0 0 C0.33 0.66 0.66 1.32 1 2 C-0.5 4.9375 -0.5 4.9375 -3 8 C-5.76486571 8.83895734 -8.07439213 8.90247974 -11 9 C-10.484375 8.62875 -9.96875 8.2575 -9.4375 7.875 C-6.18438982 5.37260756 -3.09877473 2.68966683 0 0 Z " fill="#ECDB63" transform="translate(186,277)"/>
<path d="M0 0 C0.79664063 0.08378906 1.59328125 0.16757813 2.4140625 0.25390625 C10.24114462 1.04727138 10.24114462 1.04727138 18 0 C18 0.66 18 1.32 18 2 C14.43954823 3.18681726 11.56191663 3.09689832 7.8125 3.0625 C6.54019531 3.05347656 5.26789063 3.04445312 3.95703125 3.03515625 C2.49330078 3.01775391 2.49330078 3.01775391 1 3 C0.67 2.01 0.34 1.02 0 0 Z " fill="#E8D656" transform="translate(157,222)"/>
<path d="M0 0 C0.66 0 1.32 0 2 0 C0.5129879 4.59621922 -1.79812128 7.46972347 -5 11 C-5.33 11 -5.66 11 -6 11 C-6 9.35 -6 7.7 -6 6 C-5.01 5.67 -4.02 5.34 -3 5 C-3 4.01 -3 3.02 -3 2 C-2.01 2 -1.02 2 0 2 C0 1.34 0 0.68 0 0 Z " fill="#F18CC3" transform="translate(111,186)"/>
<path d="M0 0 C2.66666667 2.66666667 5.33333333 5.33333333 8 8 C7.67 8.66 7.34 9.32 7 10 C6.566875 9.525625 6.13375 9.05125 5.6875 8.5625 C3.97690387 6.76313043 3.97690387 6.76313043 1 6 C1 6.66 1 7.32 1 8 C0.34 8 -0.32 8 -1 8 C-1.04241723 5.66705225 -1.04092937 3.33297433 -1 1 C-0.67 0.67 -0.34 0.34 0 0 Z " fill="#ECD94F" transform="translate(201,235)"/>
<path d="M0 0 C0.66 1.32 1.32 2.64 2 4 C1.38125 4.598125 0.7625 5.19625 0.125 5.8125 C-2.13676954 8.00811144 -2.13676954 8.00811144 -4 11 C-4.99 11 -5.98 11 -7 11 C-5.22054913 6.95579349 -2.60470327 3.53921513 0 0 Z " fill="#F595C7" transform="translate(72,192)"/>
<path d="M0 0 C0.99 0 1.98 0 3 0 C3.75 2.125 3.75 2.125 4 5 C2.0625 8.3125 2.0625 8.3125 0 11 C-0.99 9.68 -1.98 8.36 -3 7 C-2.34 6.01 -1.68 5.02 -1 4 C-0.34 4.33 0.32 4.66 1 5 C1.33 4.01 1.66 3.02 2 2 C1.34 2 0.68 2 0 2 C0 1.34 0 0.68 0 0 Z " fill="#F984C1" transform="translate(115,175)"/>
<path d="M0 0 C2.31 0 4.62 0 7 0 C3.24532309 3.05936637 -0.08113061 5 -5 5 C-5 4.34 -5 3.68 -5 3 C-3.35 2.67 -1.7 2.34 0 2 C0 1.34 0 0.68 0 0 Z " fill="#E8DA5D" transform="translate(186,309)"/>
<path d="M0 0 C1.5625 1.625 1.5625 1.625 3 4 C2.6875 7.25 2.6875 7.25 2 10 C0.35 9.67 -1.3 9.34 -3 9 C-2.67 8.01 -2.34 7.02 -2 6 C-1.34 6 -0.68 6 0 6 C0 4.02 0 2.04 0 0 Z " fill="#F87CC0" transform="translate(115,301)"/>
<path d="M0 0 C0.99 0.33 1.98 0.66 3 1 C4.1875 3.5625 4.1875 3.5625 5 6 C5.33 6 5.66 6 6 6 C6 8.64 6 11.28 6 14 C4.31821339 11.47732009 3.09893258 9.18908177 1.875 6.4375 C1.52179688 5.65246094 1.16859375 4.86742187 0.8046875 4.05859375 C0 2 0 2 0 0 Z " fill="#A9F0E4" transform="translate(333,217)"/>
<path d="M0 0 C1.485 0.99 1.485 0.99 3 2 C3.1875 5.625 3.1875 5.625 3 9 C3.66 9 4.32 9 5 9 C5 10.98 5 12.96 5 15 C3.25050228 12.37575342 2.34610019 10.44272784 1.375 7.5 C0.98441406 6.33984375 0.98441406 6.33984375 0.5859375 5.15625 C0 3 0 3 0 0 Z " fill="#A4EEE3" transform="translate(227,264)"/>
<path d="M0 0 C3.125 -0.1875 3.125 -0.1875 6 0 C4.02 2.31 2.04 4.62 0 7 C-0.66 5.68 -1.32 4.36 -2 3 C-1.34 2.01 -0.68 1.02 0 0 Z " fill="#B1D267" transform="translate(419,272)"/>
<path d="M0 0 C0.33 0 0.66 0 1 0 C0.85950482 1.47968324 0.71245174 2.95874516 0.5625 4.4375 C0.48128906 5.26121094 0.40007812 6.08492187 0.31640625 6.93359375 C0 9 0 9 -1 10 C-2.66617115 10.04063832 -4.33388095 10.042721 -6 10 C-5.65066406 9.52949219 -5.30132812 9.05898437 -4.94140625 8.57421875 C-4.48636719 7.95160156 -4.03132812 7.32898438 -3.5625 6.6875 C-2.88380859 5.76517578 -2.88380859 5.76517578 -2.19140625 4.82421875 C-0.82663692 2.90322899 -0.82663692 2.90322899 0 0 Z " fill="#EBDA62" transform="translate(181,212)"/>
<path d="M0 0 C8.19256018 0.35010941 8.19256018 0.35010941 11.5625 3.0625 C12.036875 3.701875 12.51125 4.34125 13 5 C8.15340923 4.40895235 4.39251833 3.02055843 0 1 C0 0.67 0 0.34 0 0 Z " fill="#A1EFE2" transform="translate(262,312)"/>
<path d="M0 0 C1.1875 2.5625 1.1875 2.5625 2 5 C-1.24208567 4.64950425 -2.61527704 4.43778819 -4.8125 1.9375 C-5.4003125 0.9784375 -5.4003125 0.9784375 -6 0 C-3 -1 -3 -1 0 0 Z " fill="#E7D23B" transform="translate(135,301)"/>
<path d="M0 0 C1.32 0 2.64 0 4 0 C3.54917531 1.46067199 3.08906463 2.91848032 2.625 4.375 C2.36976563 5.18710937 2.11453125 5.99921875 1.8515625 6.8359375 C1 9 1 9 -1 11 C-0.67 7.37 -0.34 3.74 0 0 Z " fill="#92EDE0" transform="translate(361,272)"/>
<path d="M0 0 C0.33 0 0.66 0 1 0 C1 3.3 1 6.6 1 10 C0.01 10 -0.98 10 -2 10 C-2.33 10.66 -2.66 11.32 -3 12 C-2.68950274 10.56206608 -2.3765224 9.1246682 -2.0625 7.6875 C-1.88847656 6.88699219 -1.71445313 6.08648437 -1.53515625 5.26171875 C-1 3 -1 3 0 0 Z " fill="#97EEE1" transform="translate(230,214)"/>
<path d="M0 0 C0.99 0 1.98 0 3 0 C1.44499019 3.81684226 -1.03595495 6.19195732 -4 9 C-4 7.35 -4 5.7 -4 4 C-2.68 3.67 -1.36 3.34 0 3 C0 2.01 0 1.02 0 0 Z " fill="#F496C9" transform="translate(96,205)"/>
<path d="M0 0 C4.41889613 1.35021826 6.34345343 3.26115668 9 7 C7.35 6.67 5.7 6.34 4 6 C4 5.34 4 4.68 4 4 C2.68 3.34 1.36 2.68 0 2 C0 1.34 0 0.68 0 0 Z " fill="#B6D476" transform="translate(472,177)"/>
<path d="M0 0 C-1.55500981 3.81684226 -4.03595495 6.19195732 -7 9 C-7 8.01 -7 7.02 -7 6 C-6.34 6 -5.68 6 -5 6 C-5 4.68 -5 3.36 -5 2 C-2 0 -2 0 0 0 Z " fill="#9AEDE0" transform="translate(356,290)"/>
<path d="M0 0 C0.66 0 1.32 0 2 0 C2 0.66 2 1.32 2 2 C3.65 1.67 5.3 1.34 7 1 C6.67 3.31 6.34 5.62 6 8 C1.125 3.375 1.125 3.375 0 0 Z " fill="#93F1E1" transform="translate(237,289)"/>
<path d="M0 0 C0.66 0.33 1.32 0.66 2 1 C1 4 1 4 -1.8125 5.75 C-5.13982105 7.05483179 -5.79584277 7.02866653 -9 6 C-8.43410156 5.65066406 -7.86820312 5.30132812 -7.28515625 4.94140625 C-6.55167969 4.48636719 -5.81820313 4.03132813 -5.0625 3.5625 C-4.33160156 3.11003906 -3.60070312 2.65757812 -2.84765625 2.19140625 C-1.06100191 1.13135967 -1.06100191 1.13135967 0 0 Z " fill="#A4F1E4" transform="translate(324,283)"/>
<path d="M0 0 C2.5 1.1875 2.5 1.1875 5 3 C5.3125 5.6875 5.3125 5.6875 5 8 C5.66 8.33 6.32 8.66 7 9 C6.01 9 5.02 9 4 9 C0 2.25 0 2.25 0 0 Z " fill="#F29BCD" transform="translate(62,266)"/>
<path d="M0 0 C3.93673644 1.31224548 6.22719294 2.91910327 9 6 C5.21213403 5.4739075 2.82847776 4.61896089 0 2 C0 1.34 0 0.68 0 0 Z " fill="#97EEDF" transform="translate(334,180)"/>
<path d="M0 0 C2.99324263 1.0975223 3.84610901 1.67682892 5.25 4.625 C5.4975 5.40875 5.745 6.1925 6 7 C5.34 7.66 4.68 8.32 4 9 C0 2.25 0 2.25 0 0 Z " fill="#F397CB" transform="translate(72,283)"/>
<path d="M0 0 C4.42857143 5.14285714 4.42857143 5.14285714 5 9 C4.34 9 3.68 9 3 9 C3 8.34 3 7.68 3 7 C2.01 6.67 1.02 6.34 0 6 C0 4.02 0 2.04 0 0 Z " fill="#AED16A" transform="translate(459,266)"/>
<path d="M0 0 C0 3 0 3 -2.5 5.6875 C-3.325 6.450625 -4.15 7.21375 -5 8 C-5 7.01 -5 6.02 -5 5 C-4.34 5 -3.68 5 -3 5 C-3 4.34 -3 3.68 -3 3 C-3.66 2.67 -4.32 2.34 -5 2 C-3.35 1.34 -1.7 0.68 0 0 Z " fill="#F599CA" transform="translate(104,197)"/>
<path d="M0 0 C2 2 2 2 2 6 C0.35 6 -1.3 6 -3 6 C-1.125 1.125 -1.125 1.125 0 0 Z " fill="#E7D13C" transform="translate(130,190)"/>
<path d="M0 0 C1.9375 0.5625 1.9375 0.5625 4 2 C4.75 5.625 4.75 5.625 5 9 C0.57142857 3.85714286 0.57142857 3.85714286 0 0 Z " fill="#B0D270" transform="translate(443,295)"/>
<path d="M0 0 C2.31 1.65 4.62 3.3 7 5 C3 6 3 6 0 5 C0 3.35 0 1.7 0 0 Z " fill="#97EDDF" transform="translate(268,282)"/>
<path d="M0 0 C4.42857143 5.14285714 4.42857143 5.14285714 5 9 C2 8 2 8 0 5 C-0.125 2.3125 -0.125 2.3125 0 0 Z " fill="#B2D16F" transform="translate(451,252)"/>
<path d="M0 0 C0.66 0.33 1.32 0.66 2 1 C-2.43076923 6.78461538 -2.43076923 6.78461538 -5.3125 7.875 C-5.869375 7.91625 -6.42625 7.9575 -7 8 C-5.50902342 4.2047869 -3.24299151 2.38957269 0 0 Z " fill="#9BEFDF" transform="translate(252,184)"/>
<path d="M0 0 C4.42857143 5.14285714 4.42857143 5.14285714 5 9 C2 8 2 8 0.8125 6.1875 C0 4 0 4 0 0 Z " fill="#B4D378" transform="translate(479,301)"/>
<path d="M0 0 C0.66 0.33 1.32 0.66 2 1 C0.25 6.75 0.25 6.75 -2 9 C-2.33 7.02 -2.66 5.04 -3 3 C-2.01 3 -1.02 3 0 3 C0 2.01 0 1.02 0 0 Z " fill="#E9D44B" transform="translate(212,285)"/>
<path d="M0 0 C0.99 0 1.98 0 3 0 C3.99 3.3 4.98 6.6 6 10 C3.36335259 7.36335259 1.744776 5.24029829 0 2 C0 1.34 0 0.68 0 0 Z " fill="#BCD883" transform="translate(432,276)"/>
<path d="M0 0 C2.0625 2.25 2.0625 2.25 4 5 C3.75 7.3125 3.75 7.3125 3 9 C1.5 7.875 1.5 7.875 0 6 C-0.1875 2.8125 -0.1875 2.8125 0 0 Z " fill="#8BECDB" transform="translate(259,270)"/>
<path d="M0 0 C1.45945288 0.08708669 2.91765868 0.19526907 4.375 0.3125 C5.59316406 0.39951172 5.59316406 0.39951172 6.8359375 0.48828125 C9 1 9 1 11 4 C7.1936543 3.32829194 3.64793184 2.27253436 0 1 C0 0.67 0 0.34 0 0 Z " fill="#EAD95F" transform="translate(172,253)"/>
<path d="M0 0 C0.5625 1.9375 0.5625 1.9375 1 4 C0.67 4.33 0.34 4.66 0 5 C-0.23192865 6.51469448 -0.41215238 8.03754562 -0.5625 9.5625 C-0.64628906 10.38878906 -0.73007812 11.21507812 -0.81640625 12.06640625 C-0.87699219 12.70449219 -0.93757813 13.34257812 -1 14 C-1.33 14 -1.66 14 -2 14 C-2.05410687 12.22950311 -2.09284119 10.45853151 -2.125 8.6875 C-2.14820313 7.70136719 -2.17140625 6.71523437 -2.1953125 5.69921875 C-2 3 -2 3 0 0 Z " fill="#A8EFE2" transform="translate(285,237)"/>
<path d="M0 0 C1.65 0.33 3.3 0.66 5 1 C3.75453595 4.73639216 2.36595047 5.18756513 -1 7 C-0.67 4.69 -0.34 2.38 0 0 Z " fill="#ADCE63" transform="translate(466,227)"/>
<path d="M0 0 C1.32 1.32 2.64 2.64 4 4 C1.35261084 5.4606285 0.10551666 6 -3 6 C-3 5.34 -3 4.68 -3 4 C-2.01 4 -1.02 4 0 4 C0 2.68 0 1.36 0 0 Z " fill="#EBD33F" transform="translate(153,218)"/>
<path d="M0 0 C1.65 0 3.3 0 5 0 C3.02 2.97 3.02 2.97 1 6 C0.34 5.67 -0.32 5.34 -1 5 C-0.67 3.35 -0.34 1.7 0 0 Z " fill="#93EEE0" transform="translate(262,210)"/>
<path d="M0 0 C1.98 0 3.96 0 6 0 C4.68 1.65 3.36 3.3 2 5 C1.34 4.67 0.68 4.34 0 4 C0 2.68 0 1.36 0 0 Z " fill="#E9D952" transform="translate(199,300)"/>
<path d="M0 0 C0.33 0 0.66 0 1 0 C1.36923077 5.53846154 1.36923077 5.53846154 -0.5 7.875 C-1.2425 8.431875 -1.2425 8.431875 -2 9 C-2.25 3.375 -2.25 3.375 0 0 Z " fill="#E7D43F" transform="translate(122,246)"/>
<path d="M0 0 C3 1.8125 3 1.8125 6 4 C6 4.99 6 5.98 6 7 C1.2 4.53846154 1.2 4.53846154 0.1875 1.8125 C0.125625 1.214375 0.06375 0.61625 0 0 Z " fill="#9EF0E3" transform="translate(343,186)"/>
<path d="M0 0 C0.625 1.875 0.625 1.875 1 4 C0.34 4.66 -0.32 5.32 -1 6 C-1.99 6 -2.98 6 -4 6 C-2.84826645 3.53199953 -1.95216435 1.95216435 0 0 Z " fill="#ABCE63" transform="translate(413,243)"/>
<path d="M0 0 C0.33 0.99 0.66 1.98 1 3 C-0.65 4.65 -2.3 6.3 -4 8 C-4 4.09161134 -2.49432124 2.88405893 0 0 Z " fill="#F3A4CF" transform="translate(60,208)"/>
<path d="M0 0 C6.75 0.75 6.75 0.75 9 3 C6.03 2.67 3.06 2.34 0 2 C0 1.34 0 0.68 0 0 Z " fill="#9FF0E2" transform="translate(317,173)"/>
<path d="M0 0 C1.65 0 3.3 0 5 0 C4.34 1.65 3.68 3.3 3 5 C2.34 5 1.68 5 1 5 C0.67 3.35 0.34 1.7 0 0 Z " fill="#E98AB9" transform="translate(117,174)"/>
</svg>
